<svg width="253" height="38" viewBox="0 0 253 38" fill="none" xmlns="http://www.w3.org/2000/svg">
<path d="M17.3776 35.504C14.8816 35.504 12.7816 34.952 11.0776 33.848C9.37359 32.72 8.17359 31.196 7.47759 29.276L11.7256 26.792C12.7096 29.36 14.6416 30.644 17.5216 30.644C18.9136 30.644 19.9336 30.392 20.5816 29.888C21.2296 29.384 21.5536 28.748 21.5536 27.98C21.5536 27.092 21.1576 26.408 20.3656 25.928C19.5736 25.424 18.1576 24.884 16.1176 24.308C14.9896 23.972 14.0296 23.636 13.2376 23.3C12.4696 22.964 11.6896 22.52 10.8976 21.968C10.1296 21.392 9.54159 20.672 9.13359 19.808C8.72559 18.944 8.52159 17.936 8.52159 16.784C8.52159 14.504 9.32559 12.692 10.9336 11.348C12.5656 9.98 14.5216 9.296 16.8016 9.296C18.8416 9.296 20.6296 9.8 22.1656 10.808C23.7256 11.792 24.9376 13.172 25.8016 14.948L21.6256 17.36C20.6176 15.2 19.0096 14.12 16.8016 14.12C15.7696 14.12 14.9536 14.36 14.3536 14.84C13.7776 15.296 13.4896 15.896 13.4896 16.64C13.4896 17.432 13.8136 18.08 14.4616 18.584C15.1336 19.064 16.4056 19.592 18.2776 20.168C19.0456 20.408 19.6216 20.6 20.0056 20.744C20.4136 20.864 20.9536 21.068 21.6256 21.356C22.3216 21.62 22.8496 21.872 23.2096 22.112C23.5936 22.352 24.0256 22.676 24.5056 23.084C24.9856 23.492 25.3456 23.912 25.5856 24.344C25.8496 24.776 26.0656 25.304 26.2336 25.928C26.4256 26.528 26.5216 27.188 26.5216 27.908C26.5216 30.236 25.6696 32.084 23.9656 33.452C22.2856 34.82 20.0896 35.504 17.3776 35.504ZM39.3145 21.464H35.2465V28.952C35.2465 29.576 35.4025 30.032 35.7145 30.32C36.0265 30.608 36.4825 30.776 37.0825 30.824C37.6825 30.848 38.4265 30.836 39.3145 30.788V35C36.1225 35.36 33.8665 35.06 32.5465 34.1C31.2505 33.14 30.6025 31.424 30.6025 28.952V21.464H27.4705V17H30.6025V13.364L35.2465 11.96V17H39.3145V21.464ZM57.3623 32.768C55.5143 34.592 53.2583 35.504 50.5943 35.504C47.9303 35.504 45.6743 34.592 43.8263 32.768C42.0023 30.92 41.0903 28.664 41.0903 26C41.0903 23.336 42.0023 21.092 43.8263 19.268C45.6743 17.42 47.9303 16.496 50.5943 16.496C53.2583 16.496 55.5143 17.42 57.3623 19.268C59.2103 21.092 60.1343 23.336 60.1343 26C60.1343 28.664 59.2103 30.92 57.3623 32.768ZM47.1023 29.564C48.0383 30.5 49.2023 30.968 50.5943 30.968C51.9863 30.968 53.1503 30.5 54.0863 29.564C55.0223 28.628 55.4903 27.44 55.4903 26C55.4903 24.56 55.0223 23.372 54.0863 22.436C53.1503 21.5 51.9863 21.032 50.5943 21.032C49.2023 21.032 48.0383 21.5 47.1023 22.436C46.1903 23.372 45.7343 24.56 45.7343 26C45.7343 27.44 46.1903 28.628 47.1023 29.564ZM68.0453 20.096C68.4773 18.944 69.1853 18.08 70.1693 17.504C71.1773 16.928 72.2933 16.64 73.5173 16.64V21.824C72.1013 21.656 70.8293 21.944 69.7013 22.688C68.5973 23.432 68.0453 24.668 68.0453 26.396V35H63.4013V17H68.0453V20.096ZM79.4894 27.908C80.1134 30.164 81.8054 31.292 84.5654 31.292C86.3414 31.292 87.6854 30.692 88.5974 29.492L92.3414 31.652C90.5654 34.22 87.9494 35.504 84.4934 35.504C81.5174 35.504 79.1294 34.604 77.3294 32.804C75.5294 31.004 74.6294 28.736 74.6294 26C74.6294 23.288 75.5174 21.032 77.2934 19.232C79.0694 17.408 81.3494 16.496 84.1334 16.496C86.7734 16.496 88.9454 17.408 90.6494 19.232C92.3774 21.056 93.2414 23.312 93.2414 26C93.2414 26.6 93.1814 27.236 93.0614 27.908H79.4894ZM79.4174 24.308H88.5974C88.3334 23.084 87.7814 22.172 86.9414 21.572C86.1254 20.972 85.1894 20.672 84.1334 20.672C82.8854 20.672 81.8534 20.996 81.0374 21.644C80.2214 22.268 79.6814 23.156 79.4174 24.308Z" fill="#8D53EB"/>
<path d="M112.899 35L111.387 30.464H101.343L99.8314 35H94.4674L103.287 9.8H109.443L118.299 35H112.899ZM102.927 25.82H109.839L106.383 15.524L102.927 25.82ZM124.638 22.112C124.638 22.592 124.95 22.988 125.574 23.3C126.222 23.588 127.002 23.852 127.914 24.092C128.826 24.308 129.738 24.596 130.65 24.956C131.562 25.292 132.33 25.868 132.954 26.684C133.602 27.5 133.926 28.52 133.926 29.744C133.926 31.592 133.23 33.02 131.838 34.028C130.47 35.012 128.754 35.504 126.69 35.504C122.994 35.504 120.474 34.076 119.13 31.22L123.162 28.952C123.69 30.512 124.866 31.292 126.69 31.292C128.346 31.292 129.174 30.776 129.174 29.744C129.174 29.264 128.85 28.88 128.202 28.592C127.578 28.28 126.81 28.004 125.898 27.764C124.986 27.524 124.074 27.224 123.162 26.864C122.25 26.504 121.47 25.94 120.822 25.172C120.198 24.38 119.886 23.396 119.886 22.22C119.886 20.444 120.534 19.052 121.83 18.044C123.15 17.012 124.782 16.496 126.726 16.496C128.19 16.496 129.522 16.832 130.722 17.504C131.922 18.152 132.87 19.088 133.566 20.312L129.606 22.472C129.03 21.248 128.07 20.636 126.726 20.636C126.126 20.636 125.622 20.768 125.214 21.032C124.83 21.296 124.638 21.656 124.638 22.112ZM140.248 22.112C140.248 22.592 140.56 22.988 141.184 23.3C141.832 23.588 142.612 23.852 143.524 24.092C144.436 24.308 145.348 24.596 146.26 24.956C147.172 25.292 147.94 25.868 148.564 26.684C149.212 27.5 149.536 28.52 149.536 29.744C149.536 31.592 148.84 33.02 147.448 34.028C146.08 35.012 144.364 35.504 142.3 35.504C138.604 35.504 136.084 34.076 134.74 31.22L138.772 28.952C139.3 30.512 140.476 31.292 142.3 31.292C143.956 31.292 144.784 30.776 144.784 29.744C144.784 29.264 144.46 28.88 143.812 28.592C143.188 28.28 142.42 28.004 141.508 27.764C140.596 27.524 139.684 27.224 138.772 26.864C137.86 26.504 137.08 25.94 136.432 25.172C135.808 24.38 135.496 23.396 135.496 22.22C135.496 20.444 136.144 19.052 137.44 18.044C138.76 17.012 140.392 16.496 142.336 16.496C143.8 16.496 145.132 16.832 146.332 17.504C147.532 18.152 148.48 19.088 149.176 20.312L145.216 22.472C144.64 21.248 143.68 20.636 142.336 20.636C141.736 20.636 141.232 20.768 140.824 21.032C140.44 21.296 140.248 21.656 140.248 22.112ZM154.826 14.84C154.058 14.84 153.386 14.564 152.81 14.012C152.258 13.436 151.982 12.764 151.982 11.996C151.982 11.228 152.258 10.556 152.81 9.98C153.386 9.404 154.058 9.116 154.826 9.116C155.618 9.116 156.29 9.404 156.842 9.98C157.418 10.556 157.706 11.228 157.706 11.996C157.706 12.764 157.418 13.436 156.842 14.012C156.29 14.564 155.618 14.84 154.826 14.84ZM152.522 35V17H157.166V35H152.522ZM165.56 22.112C165.56 22.592 165.872 22.988 166.496 23.3C167.144 23.588 167.924 23.852 168.836 24.092C169.748 24.308 170.66 24.596 171.572 24.956C172.484 25.292 173.252 25.868 173.876 26.684C174.524 27.5 174.848 28.52 174.848 29.744C174.848 31.592 174.152 33.02 172.76 34.028C171.392 35.012 169.676 35.504 167.612 35.504C163.916 35.504 161.396 34.076 160.052 31.22L164.084 28.952C164.612 30.512 165.788 31.292 167.612 31.292C169.268 31.292 170.096 30.776 170.096 29.744C170.096 29.264 169.772 28.88 169.124 28.592C168.5 28.28 167.732 28.004 166.82 27.764C165.908 27.524 164.996 27.224 164.084 26.864C163.172 26.504 162.392 25.94 161.744 25.172C161.12 24.38 160.808 23.396 160.808 22.22C160.808 20.444 161.456 19.052 162.752 18.044C164.072 17.012 165.704 16.496 167.648 16.496C169.112 16.496 170.444 16.832 171.644 17.504C172.844 18.152 173.792 19.088 174.488 20.312L170.528 22.472C169.952 21.248 168.992 20.636 167.648 20.636C167.048 20.636 166.544 20.768 166.136 21.032C165.752 21.296 165.56 21.656 165.56 22.112ZM187.604 21.464H183.536V28.952C183.536 29.576 183.692 30.032 184.004 30.32C184.316 30.608 184.772 30.776 185.372 30.824C185.972 30.848 186.716 30.836 187.604 30.788V35C184.412 35.36 182.156 35.06 180.836 34.1C179.54 33.14 178.892 31.424 178.892 28.952V21.464H175.76V17H178.892V13.364L183.536 11.96V17H187.604V21.464ZM205.651 32.768C203.803 34.592 201.547 35.504 198.883 35.504C196.219 35.504 193.963 34.592 192.115 32.768C190.291 30.92 189.379 28.664 189.379 26C189.379 23.336 190.291 21.092 192.115 19.268C193.963 17.42 196.219 16.496 198.883 16.496C201.547 16.496 203.803 17.42 205.651 19.268C207.499 21.092 208.423 23.336 208.423 26C208.423 28.664 207.499 30.92 205.651 32.768ZM195.391 29.564C196.327 30.5 197.491 30.968 198.883 30.968C200.275 30.968 201.439 30.5 202.375 29.564C203.311 28.628 203.779 27.44 203.779 26C203.779 24.56 203.311 23.372 202.375 22.436C201.439 21.5 200.275 21.032 198.883 21.032C197.491 21.032 196.327 21.5 195.391 22.436C194.479 23.372 194.023 24.56 194.023 26C194.023 27.44 194.479 28.628 195.391 29.564Z" fill="black"/>
<path d="M241.021 13.6104C242.845 13.6104 244.563 14.3213 245.855 15.6117C247.145 16.9037 247.859 18.62 247.859 20.4504C247.859 22.2807 247.147 23.9954 245.851 25.289C244.564 26.5794 242.846 27.2935 241.017 27.2935C239.189 27.2935 237.474 26.5826 236.18 25.289L234.002 23.199L231.793 25.3175C231.162 25.9477 230.412 26.4468 229.587 26.7859C228.762 27.125 227.878 27.2976 226.986 27.2935C226.087 27.2964 225.197 27.1206 224.367 26.7762C223.537 26.4318 222.783 25.9257 222.15 25.2874C220.86 24.0002 220.148 22.2807 220.148 20.4535C220.148 18.6264 220.86 16.9116 222.154 15.6149C222.787 14.9781 223.54 14.4731 224.37 14.129C225.2 13.785 226.089 13.6087 226.988 13.6104C228.815 13.6104 230.533 14.3213 231.825 15.6149L234.002 17.7049L236.212 15.5832C236.844 14.954 237.594 14.4559 238.42 14.1173C239.245 13.7788 240.129 13.6065 241.021 13.6104ZM241.021 10.4437C238.362 10.4437 235.875 11.4649 234.002 13.3143C233.078 12.3985 231.984 11.6737 230.78 11.1811C229.577 10.6886 228.288 10.438 226.988 10.4437C225.673 10.4398 224.371 10.6972 223.157 11.2008C221.943 11.7045 220.841 12.4444 219.915 13.3776C218.024 15.2649 216.982 17.7793 216.982 20.4535C216.982 23.1278 218.024 25.6374 219.915 27.5279C220.841 28.4601 221.944 29.1993 223.158 29.7026C224.373 30.206 225.675 30.4635 226.989 30.4602C228.29 30.4661 229.579 30.2154 230.783 29.7226C231.987 29.2297 233.082 28.5044 234.005 27.588C234.928 28.5045 236.023 29.2299 237.227 29.7227C238.431 30.2155 239.72 30.4661 241.021 30.4602C242.336 30.464 243.638 30.2064 244.853 29.7025C246.068 29.1985 247.17 28.4583 248.097 27.5247C249.03 26.599 249.769 25.497 250.273 24.2827C250.776 23.0685 251.033 21.7664 251.029 20.4519C251.032 19.137 250.774 17.8345 250.271 16.6197C249.768 15.4049 249.029 14.3019 248.097 13.3744C247.169 12.4426 246.066 11.7039 244.852 11.2008C243.637 10.6978 242.335 10.4405 241.021 10.4437ZM226.988 19.152C227.344 19.152 227.662 19.2914 227.957 19.5811L228.859 20.4488L227.904 21.3655C227.658 21.5993 227.329 21.7261 226.989 21.7186C226.648 21.7268 226.318 21.5999 226.071 21.3655C225.95 21.2457 225.854 21.1031 225.789 20.946C225.724 20.7889 225.69 20.6205 225.691 20.4504C225.691 20.1004 225.824 19.7822 226.076 19.5304C226.195 19.4097 226.337 19.3141 226.493 19.2491C226.65 19.1841 226.818 19.1511 226.988 19.152ZM226.988 17.5687C226.218 17.5687 225.496 17.8679 224.953 18.4126C224.684 18.6794 224.471 18.9969 224.325 19.3466C224.18 19.6964 224.105 20.0716 224.106 20.4504C224.106 21.2167 224.405 21.9403 224.95 22.4849C225.494 23.0296 226.24 23.3019 226.988 23.3019C227.747 23.3101 228.479 23.0162 229.022 22.4849L231.142 20.4504L229.051 18.4395C228.782 18.164 228.461 17.945 228.107 17.7954C227.753 17.6458 227.372 17.5687 226.988 17.5687ZM241.021 19.1789C241.358 19.1699 241.686 19.2945 241.933 19.5257C242.183 19.7774 242.316 20.0941 242.316 20.4472C242.316 20.8003 242.184 21.1154 241.931 21.3671C241.811 21.4838 241.67 21.5757 241.515 21.6377C241.36 21.6996 241.194 21.7304 241.027 21.7281C240.845 21.7283 240.664 21.6918 240.496 21.6208C240.329 21.5498 240.177 21.4457 240.05 21.3149L239.146 20.4472L240.101 19.532C240.348 19.2971 240.679 19.1702 241.021 19.1789ZM241.021 17.5956C240.273 17.5956 239.528 17.8679 238.983 18.4126L236.861 20.4472L238.954 22.458C239.227 22.7298 239.551 22.945 239.907 23.0914C240.263 23.2379 240.645 23.3126 241.03 23.3114C241.407 23.3146 241.781 23.2428 242.13 23.1001C242.48 22.9575 242.797 22.7469 243.064 22.4805C243.331 22.2142 243.543 21.8974 243.686 21.5486C243.83 21.1998 243.903 20.826 243.901 20.4488C243.902 20.0703 243.828 19.6954 243.683 19.3457C243.539 18.9959 243.326 18.6782 243.058 18.411C242.513 17.8812 241.781 17.5881 241.021 17.5956Z" fill="#F3BD55"/>
</svg>
